HIERARCHY
ROOT mixamorig:Hips
{
	OFFSET 0.00 0.00 0.00
	CHANNELS 6 Xposition Yposition Zposition Zrotation Yrotation Xrotation
	JOINT mixamorig:Spine
	{
		OFFSET	0.0000	5.4617	-0.3112
		CHANNELS 3 Zrotation Yrotation Xrotation
		JOINT mixamorig:Spine1
		{
			OFFSET	0.0000	6.3720	-0.3631
			CHANNELS 3 Zrotation Yrotation Xrotation
			JOINT mixamorig:Spine2
			{
				OFFSET	0.0000	7.2823	-0.4150
				CHANNELS 3 Zrotation Yrotation Xrotation
				JOINT mixamorig:Neck
				{
					OFFSET	0.0000	8.1925	-0.4669
					CHANNELS 3 Zrotation Yrotation Xrotation
					JOINT mixamorig:Head
					{
						OFFSET	0.0000	3.2833	1.4592
						CHANNELS 3 Zrotation Yrotation Xrotation
						End Site
						{
							OFFSET 0.0000 8.9613 3.9825
						}
					}
				}
				JOINT mixamorig:LeftShoulder
				{
					OFFSET	3.1626	7.0906	-0.4769
					CHANNELS 3 Zrotation Yrotation Xrotation
					JOINT mixamorig:LeftArm
					{
						OFFSET	6.5498	-2.2589	-0.0201
						CHANNELS 3 Zrotation Yrotation Xrotation
						JOINT mixamorig:LeftForeArm
						{
							OFFSET	8.3648	-10.4673	0.1269
							CHANNELS 3 Zrotation Yrotation Xrotation
							JOINT mixamorig:LeftHand
							{
								OFFSET	7.0063	-8.8178	-0.0855
								CHANNELS 3 Zrotation Yrotation Xrotation
								JOINT mixamorig:LeftHandIndex1
								{
									OFFSET	3.3821	-4.7763	-0.1200
									CHANNELS 3 Zrotation Yrotation Xrotation
									JOINT mixamorig:LeftHandIndex2
									{
										OFFSET	0.2668	-1.0637	-0.1708
										CHANNELS 3 Zrotation Yrotation Xrotation
										JOINT mixamorig:LeftHandIndex3
										{
											OFFSET	-0.1405	-1.7260	-0.3477
											CHANNELS 3 Zrotation Yrotation Xrotation
											End Site
											{
												OFFSET -0.1693 -1.6426 -0.2357
											}
										}
									}
								}
							}
						}
					}
				}
				JOINT mixamorig:RightShoulder
				{
					OFFSET	-3.1626	7.0906	-0.4567
					CHANNELS 3 Zrotation Yrotation Xrotation
					JOINT mixamorig:RightArm
					{
						OFFSET	-6.5498	-2.2589	0.0201
						CHANNELS 3 Zrotation Yrotation Xrotation
						JOINT mixamorig:RightForeArm
						{
							OFFSET	-8.3649	-10.4674	0.0832
							CHANNELS 3 Zrotation Yrotation Xrotation
							JOINT mixamorig:RightHand
							{
								OFFSET	-7.0063	-8.8178	-0.0448
								CHANNELS 3 Zrotation Yrotation Xrotation
								JOINT mixamorig:RightHandIndex1
								{
									OFFSET	-2.5529	-5.4914	-0.3827
									CHANNELS 3 Zrotation Yrotation Xrotation
									JOINT mixamorig:RightHandIndex2
									{
										OFFSET	-0.9385	-0.6041	-0.0836
										CHANNELS 3 Zrotation Yrotation Xrotation
										JOINT mixamorig:RightHandIndex3
										{
											OFFSET	-0.1181	-1.6135	-0.2676
											CHANNELS 3 Zrotation Yrotation Xrotation
											End Site
											{
												OFFSET 0.1057 -1.5029 -0.1693
											}
										}
									}
								}
							}
						}
					}
				}
			}
		}
	}
	JOINT mixamorig:LeftUpLeg
	{
		OFFSET	4.7020	-3.0373	0.2971
		CHANNELS 3 Zrotation Yrotation Xrotation
		JOINT mixamorig:LeftLeg
		{
			OFFSET	1.4174	-24.5547	-0.0425
			CHANNELS 3 Zrotation Yrotation Xrotation
			JOINT mixamorig:LeftFoot
			{
				OFFSET	2.4192	-23.6600	-0.3483
				CHANNELS 3 Zrotation Yrotation Xrotation
				JOINT mixamorig:LeftToeBase
				{
					OFFSET	0.1755	-3.6209	5.9487
					CHANNELS 3 Zrotation Yrotation Xrotation
					End Site
					{
						OFFSET 0.0345 0.0250 2.8160
					}
				}
			}
		}
	}
	JOINT mixamorig:RightUpLeg
	{
		OFFSET	-4.7020	-3.0373	0.1877
		CHANNELS 3 Zrotation Yrotation Xrotation
		JOINT mixamorig:RightLeg
		{
			OFFSET	-1.4174	-24.5548	0.0851
			CHANNELS 3 Zrotation Yrotation Xrotation
			JOINT mixamorig:RightFoot
			{
				OFFSET	-2.4193	-23.6600	-0.2872
				CHANNELS 3 Zrotation Yrotation Xrotation
				JOINT mixamorig:RightToeBase
				{
					OFFSET	-0.1755	-3.6209	5.7987
					CHANNELS 3 Zrotation Yrotation Xrotation
					End Site
					{
						OFFSET -0.0345 0.0250 2.8115
					}
				}
			}
		}
	}
}
MOTION
Frames: 14
Frame Time: 0.0166667
-35.7817 44.1173 12.3762 -5.7777 31.7753 8.0679 3.5677 2.9755 19.9606 0.7035 0.9248 0.7768 0.6865 0.9350 0.7760 1.5680 -2.7315 -5.6383 12.2620 -23.6182 -44.1349 5.6948 6.5321 0.7915 -18.0114 -14.4592 19.4463 6.3167 -32.5274 -76.1922 -4.6135 -5.6491 -20.3010 -28.3955 2.2316 -2.6901 -81.4834 10.7131 -8.2123 -93.7861 12.5724 -7.2598 7.2368 -7.9603 0.7890 26.7228 0.3075 14.6286 -0.3172 35.6892 -84.6390 13.8431 -7.4052 1.4661 81.2759 -6.7784 -5.3161 47.1245 -4.7500 -4.1210 86.8104 -8.3855 -6.9818 15.2658 42.5458 -63.3915 1.8970 19.2726 64.9397 1.3285 0.2910 14.1809 6.5153 -18.5249 -19.4937 3.5207 -2.5625 -49.0079 -10.1676 -12.7017 80.9569 1.4309 1.2295 -41.2581 0.0000 -2.5112 -0.0000 
-35.7708 44.0953 12.3896 -5.7883 31.7946 7.9793 3.6126 2.9876 19.9916 0.7137 0.9292 0.7832 0.6968 0.9384 0.7825 1.5822 -2.7309 -5.6587 12.2941 -23.5732 -44.3434 5.7287 6.5554 0.7933 -18.0483 -14.4824 19.4958 6.3989 -32.5613 -76.2227 -4.4587 -5.6678 -20.3196 -28.4275 2.2360 -2.6901 -81.4908 10.7135 -8.2134 -93.7857 12.5724 -7.2597 7.2262 -7.9540 0.7902 26.6733 0.2704 14.6689 -0.1787 35.7377 -84.7448 13.5680 -7.4183 1.5917 81.3084 -6.7804 -5.3202 47.1318 -4.7507 -4.1217 86.8100 -8.3855 -6.9817 15.2965 42.5311 -63.4407 2.0702 19.1912 65.0840 1.2411 0.3075 14.4896 6.6873 -18.6760 -19.8596 3.5278 -2.4762 -48.9263 -10.2466 -12.6685 81.0392 1.4910 1.2557 -41.3297 -0.0000 -2.6801 0.0000 
-35.7609 44.0750 12.4042 -5.7886 31.8179 7.9033 3.6560 3.0034 20.0220 0.7225 0.9345 0.7891 0.7062 0.9413 0.7885 1.5930 -2.7303 -5.6810 12.3216 -23.5497 -44.5621 5.7616 6.5780 0.7949 -18.0843 -14.5048 19.5441 6.4791 -32.5942 -76.2525 -4.3083 -5.6854 -20.3371 -28.4639 2.2410 -2.6902 -81.4878 10.7134 -8.2130 -93.7853 12.5724 -7.2596 7.2224 -7.9691 0.7893 26.6246 0.2439 14.7204 -0.1448 35.8072 -84.8684 13.2684 -7.4201 1.6923 81.3453 -6.7826 -5.3248 47.1289 -4.7504 -4.1214 86.8096 -8.3855 -6.9817 15.3089 42.4982 -63.4830 2.2932 19.1354 65.2333 1.1543 0.3228 14.7062 6.8392 -18.8554 -20.1345 3.5289 -2.4003 -48.8494 -10.3201 -12.6389 81.1180 1.5442 1.2805 -41.4017 -0.0000 -2.8526 -0.0000 
-35.7530 44.0564 12.4212 -5.7764 31.8456 7.8460 3.6933 3.0210 20.0474 0.7312 0.9389 0.7918 0.7156 0.9435 0.7919 1.5960 -2.7299 -5.7020 12.3185 -23.5543 -44.7813 5.7935 6.6000 0.7966 -18.1192 -14.5262 19.5912 6.5572 -32.6262 -76.2816 -4.1628 -5.7018 -20.3537 -28.4635 2.2416 -2.6899 -81.4836 10.7131 -8.2123 -93.7848 12.5724 -7.2595 7.2191 -7.9997 0.7874 26.5851 0.2305 14.7778 -0.1723 35.8843 -84.9929 12.9482 -7.4211 1.7978 81.3449 -6.7832 -5.3250 47.1248 -4.7500 -4.1210 86.8092 -8.3855 -6.9816 15.3105 42.4579 -63.5048 2.5041 19.1036 65.3655 1.0807 0.3339 14.7948 6.9428 -19.0285 -20.2744 3.5236 -2.3403 -48.7828 -10.3858 -12.6127 81.1930 1.5889 1.3025 -41.4739 -0.0000 -3.0070 0.0000 
-35.7478 44.0396 12.4414 -5.7526 31.8773 7.8107 3.7209 3.0350 20.0643 0.7405 0.9420 0.7920 0.7255 0.9452 0.7915 1.5957 -2.7291 -5.7208 12.2757 -23.5801 -44.9932 5.8242 6.6212 0.7981 -18.1530 -14.5471 19.6363 6.6329 -32.6570 -76.3096 -4.0229 -5.7167 -20.3688 -28.4483 2.2404 -2.6895 -81.4861 10.7133 -8.2127 -93.7845 12.5724 -7.2595 7.2107 -8.0355 0.7853 26.5599 0.2270 14.8338 -0.2050 35.9528 -85.1020 12.6233 -7.4274 1.9229 81.3296 -6.7831 -5.3234 47.1272 -4.7503 -4.1213 86.8088 -8.3855 -6.9816 15.3102 42.4331 -63.5026 2.6446 19.0966 65.4613 1.0371 0.3383 14.7858 6.9984 -19.1750 -20.3036 3.5128 -2.3020 -48.7301 -10.4377 -12.5906 81.2632 1.6218 1.3197 -41.5465 -0.0000 -3.1257 0.0000 
-35.7451 44.0246 12.4647 -5.7197 31.9133 7.7977 3.7387 3.0390 20.0705 0.7502 0.9431 0.7883 0.7352 0.9452 0.7878 1.5935 -2.7277 -5.7396 12.1979 -23.6110 -45.1965 5.8538 6.6415 0.7996 -18.1856 -14.5671 19.6796 6.7059 -32.6867 -76.3365 -3.8893 -5.7290 -20.3834 -28.4298 2.2388 -2.6891 -81.5146 10.7148 -8.2173 -93.7841 12.5724 -7.2594 7.1958 -8.0683 0.7837 26.5498 0.2274 14.8818 -0.2002 36.0015 -85.1841 12.3132 -7.4384 2.0608 81.3109 -6.7829 -5.3214 47.1552 -4.7528 -4.1241 86.8084 -8.3855 -6.9815 15.3120 42.4466 -63.4858 2.6966 19.1188 65.5146 1.0351 0.3355 14.7612 7.0425 -19.3191 -20.3049 3.4964 -2.2941 -48.6924 -10.4650 -12.5750 81.3272 1.6374 1.3292 -41.6197 -0.0000 -3.1969 -0.0001 
-35.7445 44.0112 12.4905 -5.6816 31.9542 7.8044 3.7505 3.0290 20.0665 0.7592 0.9397 0.7830 0.7444 0.9416 0.7826 1.5911 -2.7252 -5.7615 12.1039 -23.6297 -45.4044 5.8821 6.6608 0.8015 -18.2168 -14.5862 19.7211 6.7761 -32.7150 -76.3622 -3.7619 -5.7401 -20.3967 -28.3996 2.2358 -2.6887 -81.5505 10.7166 -8.2230 -93.7837 12.5724 -7.2593 7.1747 -8.0960 0.7827 26.5539 0.2271 14.9185 -0.1427 36.0260 -85.2343 12.0352 -7.4478 2.1888 81.2805 -6.7822 -5.3181 47.1905 -4.7560 -4.1276 86.8080 -8.3855 -6.9815 15.3159 42.5081 -63.4714 2.6861 19.1726 65.5341 1.0720 0.3263 14.8093 7.1284 -19.5172 -20.3746 3.4746 -2.3251 -48.6686 -10.4560 -12.5699 81.3840 1.6289 1.3283 -41.6943 0.0000 -3.2173 -0.0001 
-35.7454 43.9998 12.5172 -5.6440 31.9996 7.8245 3.7620 3.0069 20.0577 0.7666 0.9333 0.7781 0.7521 0.9350 0.7777 1.5897 -2.7193 -5.7889 12.0174 -23.6255 -45.6439 5.9091 6.6791 0.8037 -18.2465 -14.6043 19.7604 6.8432 -32.7419 -76.3867 -3.6414 -5.7497 -20.4083 -28.3356 2.2288 -2.6879 -81.5333 10.7158 -8.2202 -93.7834 12.5724 -7.2592 7.1487 -8.1224 0.7823 26.5713 0.2273 14.9432 -0.0446 36.0279 -85.2535 11.7974 -7.4490 2.2827 81.2156 -6.7800 -5.3107 47.1736 -4.7545 -4.1259 86.8077 -8.3855 -6.9814 15.3220 42.6065 -63.4712 2.6634 19.2505 65.5322 1.1279 0.3157 14.9826 7.2958 -19.8221 -20.5714 3.4495 -2.3980 -48.6544 -10.4050 -12.5791 81.4309 1.5928 1.3157 -41.7689 -0.0000 -3.1895 0.0000 
-35.7479 43.9911 12.5434 -5.6126 32.0468 7.8487 3.7777 2.9796 20.0537 0.7731 0.9259 0.7754 0.7588 0.9274 0.7750 1.5899 -2.7128 -5.8211 11.9561 -23.6054 -45.9462 5.9345 6.6964 0.8058 -18.2746 -14.6214 19.7975 6.9069 -32.7673 -76.4098 -3.5281 -5.7580 -20.4183 -28.2417 2.2181 -2.6869 -81.4880 10.7134 -8.2130 -93.7830 12.5723 -7.2592 7.1203 -8.1504 0.7822 26.5995 0.2319 14.9559 0.0632 36.0133 -85.2466 11.5984 -7.4374 2.3277 81.1206 -6.7765 -5.2997 47.1291 -4.7505 -4.1214 86.8074 -8.3855 -6.9813 15.3342 42.7149 -63.4819 2.6663 19.3348 65.5170 1.1750 0.3077 15.2639 7.5383 -20.2251 -20.8780 3.4256 -2.5056 -48.6427 -10.3184 -12.6040 81.4641 1.5316 1.2928 -41.8388 -0.0000 -3.1208 0.0000 
-35.7522 43.9863 12.5679 -5.5923 32.0911 7.8682 3.8000 2.9548 20.0638 0.7801 0.9194 0.7748 0.7661 0.9207 0.7745 1.5905 -2.7072 -5.8554 11.9251 -23.5832 -46.3256 5.9583 6.7125 0.8079 -18.3010 -14.6373 19.8323 6.9670 -32.7912 -76.4314 -3.4226 -5.7648 -20.4266 -28.1599 2.2089 -2.6860 -81.5311 10.7156 -8.2199 -93.7827 12.5723 -7.2591 7.0949 -8.1762 0.7820 26.6312 0.2430 14.9558 0.1445 35.9910 -85.2227 11.4285 -7.4107 2.3177 81.0377 -6.7735 -5.2902 47.1714 -4.7543 -4.1257 86.8070 -8.3855 -6.9813 15.3578 42.7985 -63.4888 2.6988 19.4041 65.4920 1.1935 0.3046 15.5620 7.7938 -20.6272 -21.1930 3.4086 -2.6314 -48.6268 -10.2125 -12.6425 81.4802 1.4547 1.2635 -41.8985 -0.0000 -3.0231 0.0000 
-35.7574 43.9858 12.5899 -5.5856 32.1264 7.8779 3.8309 2.9377 20.0902 0.7892 0.9148 0.7786 0.7753 0.9159 0.7783 1.5915 -2.7032 -5.8885 11.9135 -23.5690 -46.7684 5.9804 6.7275 0.8098 -18.3255 -14.6522 19.8645 7.0233 -32.8134 -76.4514 -3.3252 -5.7701 -20.4332 -28.0832 2.2004 -2.6852 -81.6021 10.7194 -8.2312 -93.7824 12.5723 -7.2590 7.0794 -8.1898 0.7820 26.6534 0.2559 14.9427 0.1679 35.9716 -85.1940 11.2776 -7.3677 2.2505 80.9601 -6.7707 -5.2813 47.2413 -4.7607 -4.1327 86.8067 -8.3855 -6.9812 15.3819 42.8409 -63.4828 2.7209 19.4379 65.4604 1.1897 0.3054 15.7431 7.9456 -20.8575 -21.3716 3.4021 -2.7536 -48.6033 -10.1083 -12.6891 81.4777 1.3760 1.2334 -41.9431 -0.0000 -2.9129 0.0000 
-35.7611 43.9891 12.6098 -5.5929 32.1489 7.8788 3.8727 2.9278 20.1253 0.8004 0.9115 0.7876 0.7866 0.9124 0.7874 1.5925 -2.6994 -5.9190 11.9030 -23.5592 -47.2360 6.0008 6.7413 0.8116 -18.3480 -14.6658 19.8941 7.0755 -32.8339 -76.4698 -3.2364 -5.7739 -20.4379 -28.0151 2.1928 -2.6845 -81.6521 10.7219 -8.2392 -93.7821 12.5723 -7.2590 7.0779 -8.1810 0.7826 26.6543 0.2622 14.9191 0.1125 35.9643 -85.1727 11.1406 -7.3065 2.1205 80.8911 -6.7683 -5.2734 47.2905 -4.7651 -4.1377 86.8064 -8.3855 -6.9812 15.3849 42.8410 -63.4702 2.6760 19.4232 65.4320 1.1882 0.3068 15.6888 7.8693 -20.7334 -21.2896 3.4070 -2.8521 -48.5725 -10.0236 -12.7369 81.4596 1.3096 1.2079 -41.9729 0.0000 -2.8082 -0.0001 
-35.7615 43.9949 12.6282 -5.6134 32.1577 7.8737 3.9261 2.9215 20.1574 0.8124 0.9083 0.8028 0.7987 0.9088 0.8027 1.5931 -2.6942 -5.9472 11.8803 -23.5409 -47.6808 6.0192 6.7538 0.8133 -18.3685 -14.6781 19.9209 7.1233 -32.8525 -76.4863 -3.1566 -5.7759 -20.4408 -27.9574 2.1866 -2.6838 -81.6910 10.7240 -8.2454 -93.7818 12.5723 -7.2589 7.0889 -8.1483 0.7841 26.6304 0.2557 14.8900 -0.0295 35.9737 -85.1650 11.0204 -7.2247 1.9186 80.8327 -6.7663 -5.2668 47.3287 -4.7686 -4.1415 86.8061 -8.3855 -6.9811 15.3526 42.8045 -63.4611 2.5277 19.3577 65.4203 1.2105 0.3066 15.3514 7.5262 -20.1445 -20.9055 3.4216 -2.9144 -48.5389 -9.9684 -12.7801 81.4311 1.2649 1.1908 -41.9897 0.0000 -2.7239 -0.0001 
-35.7588 44.0020 12.6462 -5.6431 32.1559 7.8678 3.9872 2.9144 20.1782 0.8232 0.9037 0.8229 0.8097 0.9037 0.8230 1.5934 -2.6868 -5.9747 11.8417 -23.5028 -48.0624 6.0357 6.7649 0.8148 -18.3869 -14.6890 19.9450 7.1666 -32.8692 -76.5011 -3.0865 -5.7761 -20.4414 -27.9031 2.1807 -2.6833 -81.7247 10.7257 -8.2508 -93.7815 12.5723 -7.2589 7.1056 -8.1032 0.7864 26.5934 0.2401 14.8615 -0.2541 35.9968 -85.1668 10.9248 -7.1207 1.6363 80.7778 -6.7644 -5.2606 47.3618 -4.7716 -4.1448 86.8059 -8.3855 -6.9811 15.2795 42.7421 -63.4731 2.2840 19.2502 65.4198 1.2622 0.3062 14.8211 7.6752 -18.9420 -20.7641 3.4440 -2.9374 -48.5071 -9.9443 -12.8155 81.3971 1.2432 1.1826 -41.9975 -0.0000 -2.6676 -0.0001 
